# xmcd
#
# Track frame offsets:
#	150
#	14565
#	36067
#	48052
#	62851
#	80392
#	96562
#	118996
#	135725
#	150776
#	174700
#	190576
#	209754
#	221201
#	235604
#
# Disc length: 3470 seconds
#
# Revision: 1
# Processed by: cddbd v1.5PL3 Copyright (c) Steve Scherf et al.
# Submitted via: EasyCDDAExtractor 7.0.5.4
#
DISCID=d20d8c0f
DTITLE=The King Ivory Band
DYEAR=1994
DGENRE=Blues
TTITLE0=Blues In My Backyard
TTITLE1=Deep River
TTITLE2=Shave 'n' a Haircut - 2 Bits
TTITLE3=Heaven's Such a Hard Climb
TTITLE4=In The Blood
TTITLE5=She Caused a Storm
TTITLE6=You're Gonna Love Me So Bad
TTITLE7=Venice
TTITLE8=Hold On
TTITLE9=You'll Pay The Price
TTITLE10=Country Woman
TTITLE11=Love Is A Diamond
TTITLE12=Can't Get Enough of That Stuff (on the Paul Jones Show)
TTITLE13=Blues In My Backyard (on the Paul Jones Show)
TTITLE14=You'll Pay The Price (on the Paul Jones Show)
EXTD=
EXTT0=
EXTT1=
EXTT2=
EXTT3=
EXTT4=
EXTT5=
EXTT6=
EXTT7=
EXTT8=
EXTT9=
EXTT10=
EXTT11=
EXTT12=
EXTT13=
EXTT14=
PLAYORDER=
